# xmcd
#
# Track frame offsets:
#	150
#	18775
#	35815
#	53263
#	71554
#	91609
#	107062
#	123402
#	143144
#	165278
#	181968
#	194845
#
# Disc length: 2835 seconds
#
# Revision: 1
# Processed by: cddbd v1.5.2PL0 Copyright (c) Steve Scherf et al.
# Submitted via: audiograbber 1.83.01
#
DISCID=970b110c
DTITLE=Hautnah - Here's a Song
DYEAR=2002
DGENRE=Alternative
TTITLE0=Mrs. Robinson
TTITLE1=Frei wie ein Boot
TTITLE2=Horsefly Blues
TTITLE3=Here's a Song
TTITLE4=Über den Wolken
TTITLE5=Summertime
TTITLE6=Country Roads
TTITLE7=Hohenloher Mouschd
TTITLE8=Pianoman
TTITLE9=Hohenloher Ballade
TTITLE10=Wonderful tonight
TTITLE11=Blinde Katharina
EXTD=
EXTT0=
EXTT1=
EXTT2=
EXTT3=
EXTT4=
EXTT5=
EXTT6=
EXTT7=
EXTT8=
EXTT9=
EXTT10=
EXTT11=
PLAYORDER=
